<svg xmlns="http://www.w3.org/2000/svg" viewBox="0 0 24 24" fill="none" stroke="#34D399" stroke-width="1.8" stroke-linecap="round" stroke-linejoin="round">
  <!-- Sole + Heel outline -->
  <path d="M 8 9.5 C 8 8 10 7.5 13 7.5 C 16.5 7.5 18 9 18 12 C 18 15 15.5 16.5 15.5 19.5 C 15.5 21.5 14 22 12 22 C 10 22 8.5 21.5 8.5 19.5 C 8.5 17 10.5 15.5 10.5 13.5 C 10.5 11.5 8 11 8 9.5 Z" />
  <!-- Toes outlines -->
  <ellipse cx="7.5" cy="4.2" rx="1.6" ry="2.1" transform="rotate(-10 7.5 4.2)" />
  <ellipse cx="11.2" cy="4.2" rx="1.2" ry="1.6" transform="rotate(-5 11.2 4.2)" />
  <ellipse cx="14.5" cy="5" rx="1.0" ry="1.4" transform="rotate(5 14.5 5)" />
  <ellipse cx="17.5" cy="6.5" rx="0.8" ry="1.2" transform="rotate(15 17.5 6.5)" />
  <ellipse cx="20.2" cy="8.5" rx="0.7" ry="1.0" transform="rotate(25 20.2 8.5)" />
</svg>
